HIERARCHY
ROOT hips
{
  OFFSET 0 9.313263304106702 1.2146308026317778
  CHANNELS 6 Xposition Yposition Zposition Yrotation Xrotation Zrotation
  JOINT spine
  {
    OFFSET -6.402521e-31 0.5173342420023708 0
    CHANNELS 3 Yrotation Xrotation Zrotation
    JOINT chest
    {
      OFFSET 0 1.130544299341115 0
      CHANNELS 3 Yrotation Xrotation Zrotation
      JOINT upperChest
      {
        OFFSET 0 1.0863555061129995 0
        CHANNELS 3 Yrotation Xrotation Zrotation
        JOINT neck
        {
          OFFSET 0 1.3773706506454462 0
          CHANNELS 3 Yrotation Xrotation Zrotation
          JOINT head
          {
            OFFSET 0 0.7374408940073979 0
            CHANNELS 3 Yrotation Xrotation Zrotation
            JOINT leftEye
            {
              OFFSET 0.25066580148932727 0.6408406698778757 0.15963719178883284
              CHANNELS 3 Yrotation Xrotation Zrotation
              End Site
              {
                OFFSET 0.25066580148932727 0.6408406698778757 0.15963719178883284
              }
            }
            JOINT rightEye
            {
              OFFSET -0.25066576739704244 0.6408406384191823 0.15963727561643756
              CHANNELS 3 Yrotation Xrotation Zrotation
              End Site
              {
                OFFSET -0.25066576739704244 0.6408406384191823 0.15963727561643756
              }
            }
          }
        }
        JOINT leftShoulder
        {
          OFFSET 0.3761817444281191 1.0539491987447769 0
          CHANNELS 3 Yrotation Xrotation Zrotation
          JOINT leftUpperArm
          {
            OFFSET 0.8702844380000002 0 0
            CHANNELS 3 Yrotation Xrotation Zrotation
            JOINT leftLowerArm
            {
              OFFSET 2.198527310000323 0 0
              CHANNELS 3 Yrotation Xrotation Zrotation
              JOINT leftHand
              {
                OFFSET 2.146852313968281 0 0
                CHANNELS 3 Yrotation Xrotation Zrotation
                JOINT leftIndexProximal
                {
                  OFFSET 0.6585177834681599 0.07380250427007962 0.18382213159631788
                  CHANNELS 3 Yrotation Xrotation Zrotation
                  JOINT leftIndexIntermediate
                  {
                    OFFSET 0.3323021288626682 -0.009606893929485771 -0.012820872253340998
                    CHANNELS 3 Yrotation Xrotation Zrotation
                    JOINT leftIndexDistal
                    {
                      OFFSET 0.2045908926985518 -0.0071133989147997845 -0.006828784783599051
                      CHANNELS 3 Yrotation Xrotation Zrotation
                      End Site
                      {
                        OFFSET 0.2045908926985518 -0.0071133989147997845 -0.006828784783599051
                      }
                    }
                  }
                }
                JOINT leftLittleProximal
                {
                  OFFSET 0.6110054258835662 0.07380246363125398 -0.29175655876064077
                  CHANNELS 3 Yrotation Xrotation Zrotation
                  JOINT leftLittleIntermediate
                  {
                    OFFSET 0.3144281999999998 -2.5124724523095665e-9 1.8658118799974588e-7
                    CHANNELS 3 Yrotation Xrotation Zrotation
                    JOINT leftLittleDistal
                    {
                      OFFSET 0.18116185580251631 0.002815456192251098 0.0034826415518049436
                      CHANNELS 3 Yrotation Xrotation Zrotation
                      End Site
                      {
                        OFFSET 0.18116185580251631 0.002815456192251098 0.0034826415518049436
                      }
                    }
                  }
                }
                JOINT leftMiddleProximal
                {
                  OFFSET 0.6637478005691111 0.07380246480054087 0.02046981859247815
                  CHANNELS 3 Yrotation Xrotation Zrotation
                  JOINT leftMiddleIntermediate
                  {
                    OFFSET 0.3705733999999994 -2.9611069152224445e-9 9.35054791928458e-8
                    CHANNELS 3 Yrotation Xrotation Zrotation
                    JOINT leftMiddleDistal
                    {
                      OFFSET 0.22861063500000056 -1.82673876025774e-9 -1.6740782024515788e-7
                      CHANNELS 3 Yrotation Xrotation Zrotation
                      End Site
                      {
                        OFFSET 0.22861063500000056 -1.82673876025774e-9 -1.6740782024515788e-7
                      }
                    }
                  }
                }
                JOINT leftRingProximal
                {
                  OFFSET 0.6561845547265777 0.07380246406440083 -0.13588087571513918
                  CHANNELS 3 Yrotation Xrotation Zrotation
                  JOINT leftRingIntermediate
                  {
                    OFFSET 0.3437531000000005 -2.746796123886952e-9 1.4935781944558357e-7
                    CHANNELS 3 Yrotation Xrotation Zrotation
                    JOINT leftRingDistal
                    {
                      OFFSET 0.1983118991198174 -0.002467117924596085 -0.004538141969590015
                      CHANNELS 3 Yrotation Xrotation Zrotation
                      End Site
                      {
                        OFFSET 0.1983118991198174 -0.002467117924596085 -0.004538141969590015
                      }
                    }
                  }
                }
                JOINT leftThumbProximal
                {
                  OFFSET 0.09767004258864787 -0.14930060425447422 -0.07008212897521154
                  CHANNELS 3 Yrotation Xrotation Zrotation
                  JOINT leftThumbIntermediate
                  {
                    OFFSET 0.36682123028154767 -0.015768465060082004 0.28693641268151077
                    CHANNELS 3 Yrotation Xrotation Zrotation
                    JOINT leftThumbDistal
                    {
                      OFFSET 0.21091084272403915 -0.016756648201192714 0.1933767059105508
                      CHANNELS 3 Yrotation Xrotation Zrotation
                      End Site
                      {
                        OFFSET 0.21091084272403915 -0.016756648201192714 0.1933767059105508
                      }
                    }
                  }
                }
              }
            }
          }
        }
        JOINT rightShoulder
        {
          OFFSET -0.37618174442811925 1.0539491987447769 0
          CHANNELS 3 Yrotation Xrotation Zrotation
          JOINT rightUpperArm
          {
            OFFSET -0.870284438 0 0
            CHANNELS 3 Yrotation Xrotation Zrotation
            JOINT rightLowerArm
            {
              OFFSET -2.1985273100003235 0 0
              CHANNELS 3 Yrotation Xrotation Zrotation
              JOINT rightHand
              {
                OFFSET -2.1468523139682802 0 0
                CHANNELS 3 Yrotation Xrotation Zrotation
                JOINT rightIndexProximal
                {
                  OFFSET -0.6585177834681599 0.07380250427007962 0.18382213159631788
                  CHANNELS 3 Yrotation Xrotation Zrotation
                  JOINT rightIndexIntermediate
                  {
                    OFFSET -0.3323021288626682 -0.009606893929485771 -0.012820872253340998
                    CHANNELS 3 Yrotation Xrotation Zrotation
                    JOINT rightIndexDistal
                    {
                      OFFSET -0.2045908926985518 -0.0071133989147997845 -0.006828784783599051
                      CHANNELS 3 Yrotation Xrotation Zrotation
                      End Site
                      {
                        OFFSET -0.2045908926985518 -0.0071133989147997845 -0.006828784783599051
                      }
                    }
                  }
                }
                JOINT rightLittleProximal
                {
                  OFFSET -0.6110054258835662 0.07380246363125398 -0.29175655876064077
                  CHANNELS 3 Yrotation Xrotation Zrotation
                  JOINT rightLittleIntermediate
                  {
                    OFFSET -0.3144281999999998 -2.5124724523095665e-9 1.8658118799974588e-7
                    CHANNELS 3 Yrotation Xrotation Zrotation
                    JOINT rightLittleDistal
                    {
                      OFFSET -0.18116185580251631 0.002815456192251098 0.0034826415518049436
                      CHANNELS 3 Yrotation Xrotation Zrotation
                      End Site
                      {
                        OFFSET -0.18116185580251631 0.002815456192251098 0.0034826415518049436
                      }
                    }
                  }
                }
                JOINT rightMiddleProximal
                {
                  OFFSET -0.6637478005691111 0.07380246480054087 0.02046981859247815
                  CHANNELS 3 Yrotation Xrotation Zrotation
                  JOINT rightMiddleIntermediate
                  {
                    OFFSET -0.3705733999999994 -2.9611069152224445e-9 9.35054791928458e-8
                    CHANNELS 3 Yrotation Xrotation Zrotation
                    JOINT rightMiddleDistal
                    {
                      OFFSET -0.22861063500000056 -1.82673876025774e-9 -1.6740782024515788e-7
                      CHANNELS 3 Yrotation Xrotation Zrotation
                      End Site
                      {
                        OFFSET -0.22861063500000056 -1.82673876025774e-9 -1.6740782024515788e-7
                      }
                    }
                  }
                }
                JOINT rightRingProximal
                {
                  OFFSET -0.6561845547265777 0.07380246406440083 -0.13588087571513918
                  CHANNELS 3 Yrotation Xrotation Zrotation
                  JOINT rightRingIntermediate
                  {
                    OFFSET -0.3437531000000005 -2.746796123886952e-9 1.4935781944558357e-7
                    CHANNELS 3 Yrotation Xrotation Zrotation
                    JOINT rightRingDistal
                    {
                      OFFSET -0.1983118991198174 -0.002467117924596085 -0.004538141969590015
                      CHANNELS 3 Yrotation Xrotation Zrotation
                      End Site
                      {
                        OFFSET -0.1983118991198174 -0.002467117924596085 -0.004538141969590015
                      }
                    }
                  }
                }
                JOINT rightThumbProximal
                {
                  OFFSET -0.09767004258864787 -0.14930060425447422 -0.07008212897521154
                  CHANNELS 3 Yrotation Xrotation Zrotation
                  JOINT rightThumbIntermediate
                  {
                    OFFSET -0.36682123028154767 -0.015768465060082004 0.28693641268151077
                    CHANNELS 3 Yrotation Xrotation Zrotation
                    JOINT rightThumbDistal
                    {
                      OFFSET -0.21091084272403915 -0.016756648201192714 0.1933767059105508
                      CHANNELS 3 Yrotation Xrotation Zrotation
                      End Site
                      {
                        OFFSET -0.21091084272403915 -0.016756648201192714 0.1933767059105508
                      }
                    }
                  }
                }
              }
            }
          }
        }
      }
    }
  }
  JOINT leftUpperLeg
  {
    OFFSET 0.7715603 -0.3993844658041501 0
    CHANNELS 3 Yrotation Xrotation Zrotation
    JOINT leftLowerLeg
    {
      OFFSET 0 -3.529830000249343 0
      CHANNELS 3 Yrotation Xrotation Zrotation
      JOINT leftFoot
      {
        OFFSET 0 -4.154939295409685 0.004208579085223096
        CHANNELS 3 Yrotation Xrotation Zrotation
        JOINT leftToes
        {
          OFFSET 0 -0.6353414391261847 1.10414981190622
          CHANNELS 3 Yrotation Xrotation Zrotation
          End Site
          {
            OFFSET 0 -0.6015820691747853 1.10414981190622
          }
        }
      }
    }
  }
  JOINT rightUpperLeg
  {
    OFFSET -0.7715603 -0.3993844658041501 0
    CHANNELS 3 Yrotation Xrotation Zrotation
    JOINT rightLowerLeg
    {
      OFFSET 0 -3.529830000249343 0
      CHANNELS 3 Yrotation Xrotation Zrotation
      JOINT rightFoot
      {
        OFFSET 0 -4.154939295409685 0.004208579085223096
        CHANNELS 3 Yrotation Xrotation Zrotation
        JOINT rightToes
        {
          OFFSET 0 -0.6353414391261847 1.10414981190622
          CHANNELS 3 Yrotation Xrotation Zrotation
          End Site
          {
            OFFSET 0 -0.6015820691747853 1.10414981190622
          }
        }
      }
    }
  }
}
MOTION
Frames: 4
Frame Time: 0.03333333333333333
0.07904960350556807 8.754396438598631 1.4332887757695467 6.309468494350132 -5.181741020001932 1.636941737688279 9.207276486994644 0.05435506711468649 -8.266521367334558 2.9100324111729026 10.61853016969149 5.824098975659112 0 0 0 1.8638908118237199 2.0798751945299108 2.0141542068332687 3.1991411405540715 -30.271106241598112 12.922668256568636 0 0 0 0 0 0 -4.495642047264048 0.6267520449937373 -4.28535891565739 -15.396151482759866 46.199890231401376 -61.01843736063972 -114.05606375662302 -0.00005017941722106519 0.00008956825644399639 12.903034949465512 40.79533263318869 -5.089291938147107 -16.59475508562 2.846886780925005 8.899552849586025 0.012010971689622042 -0.000002644474174568963 -0.000019263979523577512 0.05534272750089103 0.00027381928853210334 -0.5216270363529851 3.840507464034414 0.781465211049844 -14.795098117377803 -0.35487476659284345 1.2480644382608195 -33.50464175918496 3.1306528290028406 0.8568824817741518 -27.183494628157465 -11.096035633114226 0.8234284068216687 3.6730349296157865 1.1775076272282397 0.10037378998001743 -9.784028421831698 1.0503411145919688 0.08004270609414368 -8.716851576263569 -5.546583904534916 -0.3055518551278336 -3.3980712165828186 2.5932141512923894 0.5048799232644695 -22.01929071547095 2.234086275897056 0.3710553951198212 -18.84621048300271 -19.704887964068355 7.539209095897232 -28.27324905253561 6.525786596642586 4.819516829850034 -0.524537284927194 7.264318177260038 -0.6544111842161959 8.934526831320554 1.1409649143989442 0.795025807240994 6.764971143932288 -4.094773426002755 -23.92800570999016 50.7543675968234 103.09392168037901 -0.0000017162635389966453 -0.000013460652126470322 8.820934396913703 4.835430419370409 14.528389632039655 6.634143267191501 -0.10563695283058211 1.3003130231200197 -1.766394240422313 0.23202955079337215 14.896109200281387 -1.8579067573786046 0.24877131896738638 15.341590518389484 1.9768901532375625 -5.246043520334921 46.96906817514396 -2.6674635389424393 0.5032785020929473 23.200601548134163 -1.3295709912898936 0.09850371605333667 10.486562352819767 5.288449509728353 -1.5298057189389243 14.358255216859805 -2.306877553183903 0.4122768976121476 20.112560849577406 -1.5371958384141313 0.7376415335731354 13.504683995787877 3.265134961209982 -3.0191551583496907 30.717800236834606 -2.537287178512478 0.4702434197349536 21.080460848572283 -1.3049824926840752 0.9249250515796636 12.03483385011067 -10.845287604528545 -14.766696096419103 -16.943570750330267 -8.814462671973804 2.646921479569729 0.5658301336421656 3.8287879954130504 -3.350021465727645 -3.1950490790528363 6.882822134131076 -5.617100518642249 -6.2876105324496026 -5.823258277838875 26.716838755751816 0.5011873934323787 28.028599289452348 -12.432245724036033 -2.5887160529610993 -0.00002973896061123217 -7.329310775080789 -0.000005097856270278038 -8.753589839523858 -13.152648333791868 -12.635252988576712 -9.161258232826867 14.724206325653755 -6.008412765693272 -10.105078262413672 9.868116762655566 10.953590858002537 -0.0000059861345164037954 -5.280812782801413 -0.00000386469389474571
0.08021312681111423 8.754197900945488 1.4378362444101342 6.433524031183382 -5.049230039356588 1.486085280517967 9.039409754065497 -0.09657461170417578 -8.402414494659046 2.8738358946027907 10.395370141429096 6.0832990957710456 0 0 0 1.8138044338893877 1.969934396015818 2.442724511131234 2.3417548875550978 -30.07306284073912 14.942541054499811 0 0 0 0 0 0 -4.4631164605900695 0.6251515507821449 -4.272218662877449 -15.832455402660937 46.4301136739849 -61.27920018856486 -113.9344866330249 -0.000052595839212975954 0.00010320586262313045 12.785874660892643 40.57162179283203 -5.126974444994401 -16.434167582917567 2.821733507885849 8.927080963391866 0.012010971689622042 -0.000002644474174568963 -0.000019263979523577512 0.025067279225536157 0.00008447562353256544 -0.270702317301415 3.781022769483011 0.7446550170707534 -14.242452215807315 -0.35487476659284345 1.2480644382608195 -33.50464175918496 3.1307495452798944 0.8569447074878429 -27.18430729010501 -11.001984650776311 0.8487313489258009 3.855453331982212 1.1774163291189619 0.10034037936474989 -9.783195503252863 1.0294171563814034 0.0768655579135094 -8.541489595711772 -5.544853168284244 -0.26573466502382975 -3.0107415043386356 2.5932275849784787 0.5049069249043947 -22.01964143305221 2.225375364532129 0.3680834272738416 -18.76983756075397 -19.64130153554606 7.56241353161885 -27.670002603260095 6.885250279517317 4.701094177896893 -0.42751681378420653 6.202758717089469 -0.7148941088236528 9.06781299372915 0.8304968305577551 0.7815052887782513 6.713922070492714 -8.37188965626731 -23.525387713377683 51.659405389808235 102.88850405240817 -0.0000033005801640332183 -0.000004136074729974996 7.450947667784689 4.184544008937777 11.238896050077063 6.148452441043041 0.18876613283732702 -1.4281037556943807 -1.1508545360118667 0.09864855096265422 9.728156637564384 -1.1527901636334479 0.09405280098740647 9.417670129517553 3.289233402375693 -4.963880925250415 40.75468203352089 -2.6553460337715133 0.49842978965985996 23.093518523337174 -1.3827186001437388 0.10777976831650148 10.929149414459618 5.284939759136673 -1.0645288311748402 10.576687344220938 -1.7590910251919605 0.24029182868331098 15.403557634835227 -1.059418483260485 0.7557303711153044 9.324623584146693 3.921420244959541 -2.582835383902245 25.59201122131057 -2.2671558883223177 0.3721226613031872 18.72409217635657 -1.1222198274631883 0.9729259879733084 10.454889919505725 -13.320243361338978 -15.042738575275562 -17.111157390394016 -8.814481252985122 2.6468958390043156 0.5658178481369329 5.388822102481242 -4.13824945081962 -3.3760699971359553 6.929026506793238 -5.7934807122892185 -6.124230175441365 -5.975930001449825 26.822532465714374 0.4077970766864227 27.978062375607035 -12.514402924837205 -2.574252976954741 0.000032827369156661304 -7.295164727575094 -0.000004741333965054288 -8.864767398297088 -13.175093017371651 -12.431134217063521 -9.17023320421362 14.63249412248452 -6.072175569776396 -10.147576206042357 9.891331063053288 10.974784898839912 -0.000008996521151058338 -5.292872840936437 -0.000004602568705896414
0.08219545537775212 8.75348611311479 1.4423554956700246 6.470496120142505 -4.987783177987141 1.389322060451062 8.81352835006458 -0.22195850455508306 -8.520327782231645 2.8282745779807184 10.162528854065028 6.43295209809253 0 0 0 1.8071056736991207 2.0803724184399472 2.6797997570600742 1.88928085789048 -29.698487928086454 16.182327226936394 0 0 0 0 0 0 -4.449139302902914 0.6258937377544481 -4.316935171932251 -16.225050117368948 46.68328732521643 -61.503975696349684 -113.77984486179109 -0.0000680643798863063 0.0001106958647317848 12.671982876153047 40.00573080304583 -5.121174880794159 -16.251168152132212 2.7929731364465797 8.958375497706669 0.012010971689622042 -0.000002644474174568963 -0.000019263979523577512 -0.009332628826356208 -6.926528018647656e-7 0.014515826737677748 3.7057254564798803 0.6991823568343054 -13.547388805932044 -0.35487476659284345 1.2480644382608195 -33.50464175918496 3.131057838372557 0.8571236464454538 -27.187261581071535 -10.89689886659397 0.8806076300262565 4.083215155717227 1.1772948351020325 0.10033572362319605 -9.782122303583 1.0056846860421909 0.07333406693396098 -8.342726229847251 -5.548187990912673 -0.2163736634700412 -2.524272632919254 2.5932782757482475 0.5049135952700062 -22.020024486943356 2.21559536771057 0.36476538158679706 -18.6844053101109 -19.574201266026428 7.578682270264375 -27.037564680431636 7.159001625633367 4.5913411879153445 -0.3569884408915376 5.198597947434162 -0.765502885057267 9.194778570187278 0.6362438584155856 0.7782569127492382 6.7216216444226955 -11.452970015050276 -22.521298476198414 52.10813643999288 102.8012073030896 -0.000002671111854359407 0.000001931977001491234 5.6548220973626195 2.590221434049828 6.600408322077021 5.424897347365734 0.24057061491381862 -2.2964923390324143 -0.5824890093515506 0.0259233502191126 5.025972821786676 -0.4642652641645438 0.014754591149896853 3.7291992289301334 4.182762134541166 -4.679212538951308 36.404516278307426 -2.651616335045988 0.4969135905508341 23.06048587286299 -1.4495283561101437 0.12002438738613846 11.486349825524005 4.998312661997219 -0.7945521307381899 8.56593625937729 -1.2723655528833133 0.12766758703140443 11.305001556892623 -0.6243063211687655 0.7318012950213775 5.36810496285175 4.254935356074096 -2.234744072849267 22.132090527497805 -2.066367829291826 0.30718082517137085 16.993645818416457 -0.9545832422423456 0.9711062277475943 8.900402794338696 -15.553646219326769 -14.51391478967553 -17.553292193095043 -8.814496658785776 2.6469392142944503 0.5658156581120816 6.048609762032575 -4.467801024804223 -3.466469255582092 6.924602389943837 -5.877973901924144 -6.039995640680028 -5.966431094200637 26.91301382036737 0.4182814117675622 27.92479376250284 -12.582674221330947 -2.5966722821862382 0.000002330207771649649 -7.260862920682603 -0.000003193574154267011 -8.915598369419808 -13.190668196236087 -12.342795409520857 -9.167965838854602 14.641348233834108 -6.057255577144686 -10.149361734301792 9.858653680573985 10.969301039128544 0.000012268283847318364 -5.307595082060252 -0.0000013563237972864607
0.08472659371115944 8.752189116044477 1.4460012137677114 6.421010908464762 -4.9805152689501195 1.3603909263249738 8.595048530476433 -0.32347085965082145 -8.609902701799045 2.7856949842858243 9.95004100981101 6.789424799647856 0 0 0 1.8358112397571065 2.3255890115317785 2.719843956818434 1.6801862340216671 -29.176555047315606 16.90266621277189 0 0 0 0 0 0 -4.443167746513339 0.6288065077890345 -4.425175533925926 -16.458556418401834 46.89317183315842 -61.626505283799844 -113.6499311697782 -0.00006585838542767562 0.00010069159068834233 12.564622623107175 39.518393192460294 -5.110688857106359 -16.303019545564815 2.8011319124294016 8.949524013013878 0.012010971689622042 -0.000002644474174568963 -0.000019263979523577512 0.028446438276079043 0.0000984643613201456 -0.2986697312309176 3.6498228573446276 0.6662161892563068 -13.03455441588667 -0.35487476659284345 1.2480644382608195 -33.50464175918496 3.131390830126079 0.8573087225965087 -27.190373206771838 -10.949738756250571 0.9131979223462687 4.233494612085595 1.1770412472976528 0.10030820939124743 -9.780238641028104 1.0315012381717459 0.07719638216020644 -8.559122385847248 -5.608473856632831 -0.18245608548788061 -2.172189598629576 2.593231423174452 0.5048888882358157 -22.019410259753826 2.226707756395568 0.3685365503181159 -18.781480399315456 -19.539918083293628 7.580857051576883 -26.723792624151564 7.386994567014251 4.525898595676427 -0.2978880855208709 4.574068114947534 -0.7936253237947298 9.273822279260369 0.5975214733394925 0.7851706681577366 6.779568037053399 -14.08403845372278 -20.989156081604314 52.289248793900434 102.8891618377288 -0.0000025434314636712355 0.000015361455824528602 3.816225110430092 -0.180941936992897 1.3652140694705692 4.84325463792144 0.2155752193557444 -2.352595727025266 -0.394991375256441 0.012251111638428219 3.483365186518628 -0.08796119957654013 0.0004246557766886072 0.638851293200099 4.763502731749119 -4.436591066209525 33.43826298023105 -2.652272777783376 0.49720249707998787 23.066487142791182 -1.5250076937314048 0.1346764867296957 12.116913551892038 4.731250975906147 -0.6512616755963433 7.509178225611778 -1.1203973344284435 0.09993624365803694 10.037720046708522 -0.4120636593407199 0.7502288723487013 3.445090884388188 4.441404575754499 -1.990884427569882 19.813682167398262 -2.020659445222075 0.29334117773469603 16.60213637129703 -0.8884323689956356 1.003470654937789 8.328827071615144 -17.262033677487967 -13.488065909869116 -18.171527404007502 -8.814479563802351 2.646910154986606 0.5658218542799492 5.74696769733939 -4.3128281529171 -3.4793837540123107 6.898859982530871 -5.89051661009855 -6.037591553267535 -5.887111257871818 26.984954477794812 0.4692126571901036 27.912843300976938 -12.638398745428358 -2.63460999418112 -0.0000027668716733145666 -7.242139316857921 0.0000013135217354205275 -8.926879665978056 -13.233765108767235 -12.351722041476838 -9.15825289186958 14.74295172529667 -6.019244456722059 -10.091711077090851 9.798040058167745 10.972871119919365 0.00002456303897216687 -5.328431041009099 -0.000002798294134765424
